REM DIRINDEX 1\2,1\3,1\4,1\5,1\6,1\7,1\8
REM DIRNAME cjc150,folder01,folder02,folder03,folder04,folder05,folder06,folder07
TITLE ""
FILE "002 ‚Å‚é•¶02.mp3" MP3
  TRACK 01 AUDIO
    TITLE "0:"
    INDEX 01 00:00:00
  TRACK 02 AUDIO
    TITLE "8:cjc150_0048"
    INDEX 01 00:00:01
  TRACK 03 AUDIO
    TITLE "0:"
    INDEX 01 00:01:17
  TRACK 04 AUDIO
    TITLE "2:cjc150_0049"
    INDEX 01 00:02:10
  TRACK 05 AUDIO
    TITLE "0:"
    INDEX 01 00:06:10
  TRACK 06 AUDIO
    TITLE "8:cjc150_0050"
    INDEX 01 00:07:35
  TRACK 07 AUDIO
    TITLE "0:"
    INDEX 01 00:10:12
  TRACK 08 AUDIO
    TITLE "3:cjc150_0051"
    INDEX 01 00:11:13
  TRACK 09 AUDIO
    TITLE "3:cjc150_0052"
    INDEX 01 00:12:38
  TRACK 10 AUDIO
    TITLE "3:cjc150_0053"
    INDEX 01 00:13:59
  TRACK 11 AUDIO
    TITLE "3:cjc150_0054"
    INDEX 01 00:15:74
  TRACK 12 AUDIO
    TITLE "3:cjc150_0055"
    INDEX 01 00:17:55
  TRACK 13 AUDIO
    TITLE "3:cjc150_0056"
    INDEX 01 00:19:22
  TRACK 14 AUDIO
    TITLE "3:cjc150_0057"
    INDEX 01 00:20:73
  TRACK 15 AUDIO
    TITLE "3:cjc150_0058"
    INDEX 01 00:22:21
  TRACK 16 AUDIO
    TITLE "8:cjc150_0059"
    INDEX 01 00:24:06
  TRACK 17 AUDIO
    TITLE "0:"
    INDEX 01 00:26:58
  TRACK 18 AUDIO
    TITLE "4:cjc150_0060"
    INDEX 01 00:27:47
  TRACK 19 AUDIO
    TITLE "4:cjc150_0061"
    INDEX 01 00:28:70
  TRACK 20 AUDIO
    TITLE "4:cjc150_0062"
    INDEX 01 00:30:69
  TRACK 21 AUDIO
    TITLE "4:cjc150_0063"
    INDEX 01 00:32:64
  TRACK 22 AUDIO
    TITLE "4:cjc150_0064"
    INDEX 01 00:35:08
  TRACK 23 AUDIO
    TITLE "4:cjc150_0065"
    INDEX 01 00:37:08
  TRACK 24 AUDIO
    TITLE "8:cjc150_0066"
    INDEX 01 00:39:64
  TRACK 25 AUDIO
    TITLE "0:"
    INDEX 01 00:42:59
  TRACK 26 AUDIO
    TITLE "5:cjc150_0067"
    INDEX 01 00:43:52
  TRACK 27 AUDIO
    TITLE "5:cjc150_0068"
    INDEX 01 00:45:59
  TRACK 28 AUDIO
    TITLE "5:cjc150_0069"
    INDEX 01 00:48:12
  TRACK 29 AUDIO
    TITLE "5:cjc150_0070"
    INDEX 01 00:49:37
  TRACK 30 AUDIO
    TITLE "5:cjc150_0071"
    INDEX 01 00:50:60
  TRACK 31 AUDIO
    TITLE "5:cjc150_0072"
    INDEX 01 00:53:21
  TRACK 32 AUDIO
    TITLE "5:cjc150_0073"
    INDEX 01 00:56:24
  TRACK 33 AUDIO
    TITLE "5:cjc150_0074"
    INDEX 01 00:58:38
  TRACK 34 AUDIO
    TITLE "5:cjc150_0075"
    INDEX 01 01:00:55
  TRACK 35 AUDIO
    TITLE "5:cjc150_0076"
    INDEX 01 01:02:32
  TRACK 36 AUDIO
    TITLE "5:cjc150_0077"
    INDEX 01 01:04:64
  TRACK 37 AUDIO
    TITLE "5:cjc150_0078"
    INDEX 01 01:06:30
  TRACK 38 AUDIO
    TITLE "5:cjc150_0079"
    INDEX 01 01:07:63
  TRACK 39 AUDIO
    TITLE "5:cjc150_0080"
    INDEX 01 01:08:66
  TRACK 40 AUDIO
    TITLE "5:cjc150_0081"
    INDEX 01 01:11:33
  TRACK 41 AUDIO
    TITLE "5:cjc150_0082"
    INDEX 01 01:12:56
  TRACK 42 AUDIO
    TITLE "8:cjc150_0083"
    INDEX 01 01:14:31
  TRACK 43 AUDIO
    TITLE "0:"
    INDEX 01 01:17:12
  TRACK 44 AUDIO
    TITLE "6:cjc150_0084"
    INDEX 01 01:18:06
  TRACK 45 AUDIO
    TITLE "6:cjc150_0085"
    INDEX 01 01:20:08
  TRACK 46 AUDIO
    TITLE "6:cjc150_0086"
    INDEX 01 01:22:31
  TRACK 47 AUDIO
    TITLE "6:cjc150_0087"
    INDEX 01 01:23:54
  TRACK 48 AUDIO
    TITLE "6:cjc150_0088"
    INDEX 01 01:25:02
  TRACK 49 AUDIO
    TITLE "6:cjc150_0089"
    INDEX 01 01:27:34
  TRACK 50 AUDIO
    TITLE "6:cjc150_0090"
    INDEX 01 01:30:44
  TRACK 51 AUDIO
    TITLE "6:cjc150_0091"
    INDEX 01 01:32:39
  TRACK 52 AUDIO
    TITLE "6:cjc150_0092"
    INDEX 01 01:34:50
  TRACK 53 AUDIO
    TITLE "6:cjc150_0093"
    INDEX 01 01:36:50
  TRACK 54 AUDIO
    TITLE "6:cjc150_0094"
    INDEX 01 01:39:55
  TRACK 55 AUDIO
    TITLE "6:cjc150_0095"
    INDEX 01 01:41:54
  TRACK 56 AUDIO
    TITLE "8:cjc150_0096"
    INDEX 01 01:43:19
  TRACK 57 AUDIO
    TITLE "0:"
    INDEX 01 01:44:73
  TRACK 58 AUDIO
    TITLE "7:cjc150_0097"
    INDEX 01 01:46:00
  TRACK 59 AUDIO
    TITLE "7:cjc150_0098"
    INDEX 01 01:50:00
  TRACK 60 AUDIO
    TITLE "0:"
    INDEX 01 01:53:06
